HIERARCHY
ROOT Hips
{
	OFFSET 0.000000 100.481300 0.000000
	CHANNELS 6 Xposition Yposition Zposition Xrotation Yrotation Zrotation 
	JOINT Spine
	{
		OFFSET -0.279200 12.230698 -2.892100
		CHANNELS 3 Xrotation Yrotation Zrotation
		JOINT Spine1
		{
			OFFSET -0.232667 10.192268 -1.242267
			CHANNELS 3 Xrotation Yrotation Zrotation
			JOINT Spine1_split
			{
				OFFSET -0.232667 10.192268 -1.242267
				CHANNELS 3 Xrotation Yrotation Zrotation
				JOINT Spine2
				{
					OFFSET -0.232667 10.192268 -1.242267
					CHANNELS 3 Xrotation Yrotation Zrotation
					JOINT Neck
					{
						OFFSET -0.418800 17.814194 8.416900
						CHANNELS 3 Xrotation Yrotation Zrotation
						JOINT Head
						{
							OFFSET 0.000000 7.031097 3.806800
							CHANNELS 3 Xrotation Yrotation Zrotation
							JOINT HeadTop_End
							{
								OFFSET 0.000000 24.646606 12.978600
								CHANNELS 3 Xrotation Yrotation Zrotation
								End Site
								{
									OFFSET 0.000000 0.000000 0.000000
								}
							}
						}
					}
					JOINT LeftShoulder
					{
						OFFSET 8.476499 7.247704 -3.868750
						CHANNELS 3 Xrotation Yrotation Zrotation
						JOINT LeftShoulder_split
						{
							OFFSET 8.476499 7.247704 -3.868750
							CHANNELS 3 Xrotation Yrotation Zrotation
							JOINT LeftArm
							{
								OFFSET 9.308998 -2.777710 0.208600
								CHANNELS 3 Xrotation Yrotation Zrotation
								JOINT LeftForeArm
								{
									OFFSET 29.972298 0.000000 0.000000
									CHANNELS 3 Xrotation Yrotation Zrotation
									JOINT LeftHand
									{
										OFFSET 26.026505 0.000000 0.000000
										CHANNELS 3 Xrotation Yrotation Zrotation
										JOINT LeftHandThumb1
										{
											OFFSET 12.240501 -7.147949 9.207150
											CHANNELS 3 Xrotation Yrotation Zrotation
											JOINT LeftHandThumb2
											{
												OFFSET 4.138618 -2.389435 2.389433
												CHANNELS 3 Xrotation Yrotation Zrotation
												JOINT LeftHandThumb3
												{
													OFFSET 2.726913 -1.574387 1.574386
													CHANNELS 3 Xrotation Yrotation Zrotation
													JOINT LeftHandThumb4
													{
														OFFSET 3.941010 -2.275345 2.275342
														CHANNELS 3 Xrotation Yrotation Zrotation
														End Site
														{
															OFFSET 0.000000 0.000000 0.000000
														}
													}
												}
											}
										}
										JOINT LeftHandIndex1
										{
											OFFSET 24.424698 -1.985611 5.953459
											CHANNELS 3 Xrotation Yrotation Zrotation
											JOINT LeftHandIndex2
											{
												OFFSET 6.426697 0.000000 0.000000
												CHANNELS 3 Xrotation Yrotation Zrotation
												JOINT LeftHandIndex3
												{
													OFFSET 5.337898 0.000000 0.000000
													CHANNELS 3 Xrotation Yrotation Zrotation
													JOINT LeftHandIndex4
													{
														OFFSET 4.409401 0.000000 0.000000
														CHANNELS 3 Xrotation Yrotation Zrotation
														End Site
														{
															OFFSET 0.000000 0.000000 0.000000
														}
													}
												}
											}
										}
										JOINT LeftHandMiddle1
										{
											OFFSET 23.810104 0.000000 0.000000
											CHANNELS 3 Xrotation Yrotation Zrotation
											JOINT LeftHandMiddle2
											{
												OFFSET 7.176498 0.000000 0.000000
												CHANNELS 3 Xrotation Yrotation Zrotation
												JOINT LeftHandMiddle3
												{
													OFFSET 6.774902 0.000000 0.000000
													CHANNELS 3 Xrotation Yrotation Zrotation
													JOINT LeftHandMiddle4
													{
														OFFSET 5.403328 0.000000 0.000000
														CHANNELS 3 Xrotation Yrotation Zrotation
														End Site
														{
															OFFSET 0.000000 0.000000 0.000000
														}
													}
												}
											}
										}
										JOINT LeftHandRing1
										{
											OFFSET 22.908401 -0.839279 -6.020567
											CHANNELS 3 Xrotation Yrotation Zrotation
											JOINT LeftHandRing2
											{
												OFFSET 6.337502 0.000000 0.000000
												CHANNELS 3 Xrotation Yrotation Zrotation
												JOINT LeftHandRing3
												{
													OFFSET 5.779297 0.000000 0.000000
													CHANNELS 3 Xrotation Yrotation Zrotation
													JOINT LeftHandRing4
													{
														OFFSET 4.965698 0.000000 0.000000
														CHANNELS 3 Xrotation Yrotation Zrotation
														End Site
														{
															OFFSET 0.000000 0.000000 0.000000
														}
													}
												}
											}
										}
										JOINT LeftHandPinky1
										{
											OFFSET 20.037003 -1.530319 -10.950146
											CHANNELS 3 Xrotation Yrotation Zrotation
											JOINT LeftHandPinky2
											{
												OFFSET 5.254700 0.000000 0.000000
												CHANNELS 3 Xrotation Yrotation Zrotation
												JOINT LeftHandPinky3
												{
													OFFSET 4.810204 0.000000 0.000000
													CHANNELS 3 Xrotation Yrotation Zrotation
													JOINT LeftHandPinky4
													{
														OFFSET 3.647202 0.000000 0.000000
														CHANNELS 3 Xrotation Yrotation Zrotation
														End Site
														{
															OFFSET 0.000000 0.000000 0.000000
														}
													}
												}
											}
										}
									}
								}
							}
						}
					}
					JOINT RightShoulder
					{
						OFFSET -7.570500 7.247704 -3.868750
						CHANNELS 3 Xrotation Yrotation Zrotation
						JOINT RightShoulder_split
						{
							OFFSET -7.570500 7.247704 -3.868750
							CHANNELS 3 Xrotation Yrotation Zrotation
							JOINT RightArm
							{
								OFFSET -9.308998 -2.777710 0.208500
								CHANNELS 3 Xrotation Yrotation Zrotation
								JOINT RightForeArm
								{
									OFFSET -29.972300 0.000000 0.000000
									CHANNELS 3 Xrotation Yrotation Zrotation
									JOINT RightHand
									{
										OFFSET -26.026505 0.000000 0.000000
										CHANNELS 3 Xrotation Yrotation Zrotation
										JOINT RightHandThumb1
										{
											OFFSET -12.240601 -7.148026 9.207092
											CHANNELS 3 Xrotation Yrotation Zrotation
											JOINT RightHandThumb2
											{
												OFFSET -4.138618 -2.389435 2.389433
												CHANNELS 3 Xrotation Yrotation Zrotation
												JOINT RightHandThumb3
												{
													OFFSET -2.726974 -1.574417 1.574421
													CHANNELS 3 Xrotation Yrotation Zrotation
													JOINT RightHandThumb4
													{
														OFFSET -3.941010 -2.275345 2.275343
														CHANNELS 3 Xrotation Yrotation Zrotation
														End Site
														{
															OFFSET 0.000000 0.000000 0.000000
														}
													}
												}
											}
										}
										JOINT RightHandIndex1
										{
											OFFSET -24.424698 -1.985657 5.953444
											CHANNELS 3 Xrotation Yrotation Zrotation
											JOINT RightHandIndex2
											{
												OFFSET -6.426697 0.000000 0.000000
												CHANNELS 3 Xrotation Yrotation Zrotation
												JOINT RightHandIndex3
												{
													OFFSET -5.337898 0.000000 0.000000
													CHANNELS 3 Xrotation Yrotation Zrotation
													JOINT RightHandIndex4
													{
														OFFSET -4.409401 0.000000 0.000000
														CHANNELS 3 Xrotation Yrotation Zrotation
														End Site
														{
															OFFSET 0.000000 0.000000 0.000000
														}
													}
												}
											}
										}
										JOINT RightHandMiddle1
										{
											OFFSET -23.810097 0.000000 0.000000
											CHANNELS 3 Xrotation Yrotation Zrotation
											JOINT RightHandMiddle2
											{
												OFFSET -7.176498 0.000000 0.000000
												CHANNELS 3 Xrotation Yrotation Zrotation
												JOINT RightHandMiddle3
												{
													OFFSET -6.774902 0.000000 0.000000
													CHANNELS 3 Xrotation Yrotation Zrotation
													JOINT RightHandMiddle4
													{
														OFFSET -5.403328 0.000000 0.000000
														CHANNELS 3 Xrotation Yrotation Zrotation
														End Site
														{
															OFFSET 0.000000 0.000000 0.000000
														}
													}
												}
											}
										}
										JOINT RightHandRing1
										{
											OFFSET -22.908302 -0.839325 -6.020576
											CHANNELS 3 Xrotation Yrotation Zrotation
											JOINT RightHandRing2
											{
												OFFSET -6.337502 0.000000 0.000000
												CHANNELS 3 Xrotation Yrotation Zrotation
												JOINT RightHandRing3
												{
													OFFSET -5.779297 0.000000 0.000000
													CHANNELS 3 Xrotation Yrotation Zrotation
													JOINT RightHandRing4
													{
														OFFSET -4.965698 0.000000 0.000000
														CHANNELS 3 Xrotation Yrotation Zrotation
														End Site
														{
															OFFSET 0.000000 0.000000 0.000000
														}
													}
												}
											}
										}
										JOINT RightHandPinky1
										{
											OFFSET -20.037003 -1.530334 -10.950259
											CHANNELS 3 Xrotation Yrotation Zrotation
											JOINT RightHandPinky2
											{
												OFFSET -5.254700 0.000000 0.000000
												CHANNELS 3 Xrotation Yrotation Zrotation
												JOINT RightHandPinky3
												{
													OFFSET -4.810204 0.000000 0.000000
													CHANNELS 3 Xrotation Yrotation Zrotation
													JOINT RightHandPinky4
													{
														OFFSET -3.647202 0.000000 0.000000
														CHANNELS 3 Xrotation Yrotation Zrotation
														End Site
														{
															OFFSET 0.000000 0.000000 0.000000
														}
													}
												}
											}
										}
									}
								}
							}
						}
					}
				}
			}
		}
	}
	JOINT LeftUpLeg
	{
		OFFSET 15.427100 -6.655098 0.678600
		CHANNELS 3 Xrotation Yrotation Zrotation
		JOINT LeftLeg
		{
			OFFSET 4.081073 -39.591068 13.024000
			CHANNELS 3 Xrotation Yrotation Zrotation
			JOINT LeftFoot
			{
				OFFSET -4.081074 -37.707932 -15.979700
				CHANNELS 3 Xrotation Yrotation Zrotation
				JOINT LeftToeBase
				{
					OFFSET 5.346399 -15.068900 20.645000
					CHANNELS 3 Xrotation Yrotation Zrotation
					JOINT LeftToe_End
					{
						OFFSET 2.754700 0.931300 11.300900
						CHANNELS 3 Xrotation Yrotation Zrotation
						End Site
						{
							OFFSET 0.000000 0.000000 0.000000
						}
					}
				}
			}
		}
	}
	JOINT RightUpLeg
	{
		OFFSET -15.569500 -6.655098 0.678600
		CHANNELS 3 Xrotation Yrotation Zrotation
		JOINT RightLeg
		{
			OFFSET -4.081825 -39.591045 13.023800
			CHANNELS 3 Xrotation Yrotation Zrotation
			JOINT RightFoot
			{
				OFFSET 4.081824 -37.707954 -15.979600
				CHANNELS 3 Xrotation Yrotation Zrotation
				JOINT RightToeBase
				{
					OFFSET -5.346400 -15.068900 20.645000
					CHANNELS 3 Xrotation Yrotation Zrotation
					JOINT RightToe_End
					{
						OFFSET -2.754700 0.931300 11.300900
						CHANNELS 3 Xrotation Yrotation Zrotation
						End Site
						{
							OFFSET 0.000000 0.000000 0.000000
						}
					}
				}
			}
		}
	}
}
MOTION
Frames: 5
Frame Time: 0.016667
2.780682 39.362999 -3.375952 0.683693 -176.545008 -8.435431 4.084004 4.410229 -2.753177 8.251960 6.771407 -4.731507 0.000000 0.000000 0.000000 8.251962 6.771409 -4.731519 -1.987040 28.311168 6.773749 5.084071 36.051822 -22.849326 0.000001 0.000000 0.000000 1.033492 -15.235090 -11.647767 0.000000 0.000000 0.000000 3.042444 -0.761203 -32.016348 40.133567 -33.388178 -1.908155 12.866396 10.638202 2.322273 -9.419896 -10.451148 8.422286 2.321120 6.714505 2.170925 0.000008 0.000011 -0.000003 0.000003 -0.000000 -0.000001 -1.239093 -9.024534 -4.969433 -0.126846 0.207660 -21.714382 -0.000004 -0.000002 0.000002 0.000001 0.000000 0.000000 1.309894 -1.012400 -8.080154 -0.178460 -0.773447 -14.430117 -0.000000 0.000004 0.000010 -0.000000 0.000000 0.000001 -0.365416 2.944766 -4.498898 -0.505481 -2.597468 -30.199483 0.000004 -0.000000 0.000007 0.000000 -0.000000 0.000001 0.029748 5.968244 0.715898 -0.699240 -5.770478 -39.699324 0.000007 0.000011 0.000004 0.000001 0.000000 -0.000003 3.185198 -18.297170 12.806536 0.000000 0.000000 0.000000 12.807456 -13.875017 59.330507 29.940838 40.956884 -3.738862 19.089479 -1.945259 12.311393 -7.852791 4.769977 -9.664438 -0.642355 -0.093893 -1.289340 0.000004 0.000002 0.000000 0.000007 0.000001 0.000001 -1.233014 0.595989 8.695214 0.120535 -1.119646 16.859798 0.000001 0.000001 0.000000 -0.000001 -0.000001 0.000001 -1.142345 -1.774140 0.545309 -0.357889 1.142260 22.115995 -0.000001 -0.000003 0.000000 -0.000004 -0.000000 -0.000001 1.909909 -0.146211 -2.803256 -0.619900 3.110096 28.344745 -0.000002 0.000001 0.000001 -0.000002 -0.000001 0.000002 4.769418 -2.279028 -7.778124 -1.320418 7.677262 37.620204 -0.000007 0.000007 0.000004 -0.000000 0.000001 -0.000000 -75.281341 -35.752205 31.187064 108.889164 -11.741644 -4.638481 -19.886231 6.380114 -21.873718 -0.956774 1.253407 0.711186 0.000000 -0.000001 0.000000 -44.590173 20.215395 -41.791732 97.412144 18.523318 7.219168 -29.510396 -12.386143 29.924739 -9.240663 -3.038586 -0.168785 0.000001 0.000001 0.000000 
2.779083 39.363121 -3.381703 0.661088 -176.548847 -8.437200 4.078747 4.407935 -2.752626 8.241340 6.766909 -4.730118 0.000000 0.000000 0.000000 8.241346 6.766908 -4.730120 -1.988036 28.342464 6.708604 5.079920 36.041163 -22.785381 -0.000000 0.000000 0.000000 1.032227 -15.314486 -11.643151 0.000000 0.000000 0.000000 3.086113 -0.688677 -32.029441 40.144556 -33.392655 -1.914912 12.845100 10.617002 2.348278 -9.419911 -10.451139 8.422283 2.321116 6.714504 2.170926 0.000012 0.000011 -0.000005 -0.000002 0.000001 0.000000 -1.239138 -9.024846 -4.949875 -0.126841 0.207660 -21.714387 -0.000007 -0.000002 -0.000000 -0.000000 0.000001 -0.000002 1.310100 -1.010954 -8.062259 -0.178457 -0.773447 -14.430117 0.000001 0.000005 0.000007 -0.000002 0.000000 -0.000000 -0.365325 2.945778 -4.487024 -0.505476 -2.597468 -30.199490 0.000007 0.000003 0.000004 0.000004 -0.000000 -0.000000 0.029731 5.969882 0.729928 -0.699239 -5.770478 -39.699324 0.000008 0.000012 0.000003 0.000001 -0.000001 0.000002 3.178408 -18.230233 12.777576 0.000000 0.000000 0.000000 12.845288 -13.905124 59.356673 29.929377 40.938689 -3.736769 19.065790 -1.958733 12.297312 -7.852785 4.769970 -9.664436 -0.642353 -0.093889 -1.289340 0.000008 0.000004 -0.000000 0.000001 0.000000 0.000001 -1.233013 0.595982 8.695229 0.120540 -1.119642 16.859801 0.000004 0.000000 0.000001 0.000002 -0.000000 0.000000 -1.142362 -1.774149 0.545302 -0.357891 1.142260 22.115994 0.000003 -0.000004 0.000001 0.000001 0.000000 -0.000000 1.909918 -0.146229 -2.803228 -0.619904 3.110098 28.344745 -0.000003 0.000001 0.000002 0.000001 0.000002 -0.000001 4.769421 -2.279017 -7.778110 -1.320418 7.677262 37.620200 -0.000005 0.000009 0.000002 -0.000001 0.000002 0.000000 -75.297843 -35.753769 31.184994 108.889902 -11.744254 -4.639623 -19.894733 6.383775 -21.874173 -0.956509 1.253407 0.711782 -0.000000 -0.000000 -0.000000 -44.609956 20.210386 -41.807643 97.413032 18.522117 7.218500 -29.511369 -12.376309 29.906004 -9.240660 -3.038587 -0.168787 0.000000 -0.000000 -0.000000 
2.773382 39.363907 -3.386792 0.643872 -176.539818 -8.438386 4.075614 4.406552 -2.751994 8.234952 6.762120 -4.728768 0.000000 0.000000 0.000000 8.234950 6.762120 -4.728766 -1.961540 28.352935 6.666014 5.081369 36.036665 -22.765784 -0.000002 0.000000 -0.000000 1.018269 -15.384835 -11.671201 0.000000 0.000000 0.000000 3.130077 -0.613953 -31.998436 40.157059 -33.422431 -1.934968 12.833464 10.604161 2.361225 -9.418943 -10.451636 8.419004 2.321118 6.714505 2.170927 0.000014 0.000011 -0.000006 -0.000003 0.000000 -0.000002 -1.238329 -9.020207 -4.898279 -0.126843 0.207660 -21.714385 -0.000004 -0.000001 0.000000 -0.000001 0.000000 -0.000002 1.310634 -1.007235 -8.016523 -0.178459 -0.773447 -14.430115 0.000002 0.000006 0.000005 0.000001 -0.000000 0.000001 -0.365112 2.948508 -4.454894 -0.505472 -2.597467 -30.199490 0.000007 0.000002 0.000005 0.000002 0.000000 -0.000000 0.035295 5.973099 0.766554 -0.699239 -5.770478 -39.699327 0.000006 0.000009 0.000007 0.000000 0.000000 -0.000003 3.169456 -18.205178 12.731748 0.000000 0.000000 0.000000 12.862357 -13.921450 59.407667 29.931033 40.882367 -3.744449 19.093907 -1.984752 12.297562 -7.852780 4.769967 -9.664458 -0.642349 -0.093890 -1.289344 0.000006 0.000002 -0.000000 0.000002 0.000000 0.000001 -1.233015 0.595987 8.695213 0.120536 -1.119644 16.859801 0.000003 -0.000000 0.000001 -0.000001 -0.000000 0.000001 -1.142364 -1.774139 0.545298 -0.357895 1.142262 22.115997 0.000002 -0.000004 0.000001 0.000003 0.000000 0.000000 1.909922 -0.146221 -2.803247 -0.619904 3.110101 28.344742 -0.000002 0.000004 0.000001 0.000001 0.000002 -0.000001 4.769418 -2.279021 -7.778120 -1.320422 7.677262 37.620204 -0.000004 0.000009 0.000002 0.000005 0.000000 0.000002 -75.334200 -35.744487 31.166297 108.894191 -11.737269 -4.636223 -19.893228 6.378169 -21.863839 -0.956501 1.253399 0.711792 -0.000000 0.000000 -0.000000 -44.605401 20.190408 -41.822437 97.412752 18.522843 7.218465 -29.536596 -12.377279 29.888208 -9.245049 -3.038575 -0.169244 0.000000 0.000003 0.000001 
2.768542 39.364792 -3.392005 0.626795 -176.531567 -8.439649 4.071744 4.406273 -2.749571 8.227050 6.760015 -4.723985 0.000000 0.000000 0.000000 8.227048 6.760014 -4.723986 -1.937309 28.365917 6.632010 5.105502 36.028278 -22.760306 -0.000001 0.000000 0.000000 1.010118 -15.419003 -11.688381 0.000000 0.000000 0.000000 3.153027 -0.589270 -31.984649 40.162639 -33.418090 -1.949288 12.827798 10.613334 2.381312 -9.417405 -10.452405 8.413790 2.321120 6.714504 2.170927 0.000014 0.000011 -0.000005 -0.000000 0.000001 -0.000000 -1.237247 -9.013930 -4.828705 -0.126839 0.207660 -21.714384 -0.000006 -0.000002 -0.000000 0.000001 -0.000001 -0.000000 1.311335 -1.002224 -7.954889 -0.178459 -0.773447 -14.430117 0.000004 0.000005 0.000005 0.000003 -0.000000 0.000000 -0.360610 2.951154 -4.408622 -0.505478 -2.597467 -30.199487 0.000004 0.000003 0.000005 0.000002 -0.000000 -0.000001 0.043674 5.977972 0.821839 -0.699240 -5.770478 -39.699324 0.000006 0.000011 0.000008 -0.000001 0.000000 -0.000001 3.165851 -18.194348 12.713015 0.000000 0.000000 0.000000 12.873446 -13.941518 59.432666 29.941476 40.850955 -3.760510 19.119786 -2.010040 12.308809 -7.852775 4.769945 -9.664438 -0.642356 -0.093892 -1.289344 0.000007 0.000003 -0.000000 0.000006 0.000001 0.000001 -1.233015 0.595972 8.695223 0.120535 -1.119646 16.859799 0.000002 -0.000000 0.000000 -0.000000 0.000002 -0.000001 -1.142360 -1.774151 0.545310 -0.357887 1.142262 22.115997 -0.000000 -0.000002 0.000002 -0.000002 0.000002 -0.000001 1.909920 -0.146234 -2.803238 -0.619904 3.110098 28.344745 -0.000003 0.000001 0.000001 -0.000002 -0.000002 -0.000000 4.769427 -2.279050 -7.778110 -1.320420 7.677264 37.620207 -0.000006 0.000009 0.000003 0.000000 0.000001 0.000000 -75.364198 -35.734184 31.150847 108.900010 -11.731635 -4.634007 -19.898327 6.373250 -21.852557 -0.956527 1.253410 0.711756 0.000000 -0.000001 -0.000000 -44.601207 20.173256 -41.836118 97.412704 18.522797 7.219028 -29.558771 -12.378674 29.873379 -9.257408 -3.043244 -0.171260 0.000000 -0.000001 -0.000000 
2.763765 39.363487 -3.396604 0.612635 -176.516158 -8.447480 4.068595 4.409906 -2.743179 8.220303 6.763313 -4.710179 0.000000 0.000000 0.000000 8.220299 6.763314 -4.710178 -1.801240 28.372370 6.520777 5.041898 36.023138 -22.741989 -0.000001 0.000000 0.000000 0.975621 -15.461784 -11.770703 0.000000 0.000000 0.000000 3.170437 -0.536182 -31.902215 40.187607 -33.467001 -1.974899 12.825607 10.639213 2.398144 -9.415574 -10.453318 8.407562 2.321120 6.714503 2.170928 0.000011 0.000012 -0.000006 0.000002 0.000001 -0.000001 -1.236089 -9.007305 -4.754705 -0.126842 0.207659 -21.714387 -0.000004 -0.000002 -0.000001 0.000003 0.000001 -0.000000 1.312074 -0.996899 -7.889207 -0.178460 -0.773448 -14.430115 0.000002 0.000005 0.000006 0.000000 0.000001 -0.000000 -0.355158 2.954367 -4.352775 -0.505481 -2.597467 -30.199490 0.000008 0.000005 0.000005 0.000003 -0.000001 -0.000001 0.053670 5.984116 0.890961 -0.699241 -5.770477 -39.699324 0.000005 0.000010 0.000003 -0.000000 -0.000001 -0.000001 3.159100 -18.210490 12.673947 0.000000 0.000000 0.000000 12.884375 -13.954245 59.461626 29.974586 40.815862 -3.790394 19.161532 -2.045048 12.317889 -7.852784 4.769966 -9.664444 -0.642351 -0.093890 -1.289338 0.000007 0.000002 -0.000001 0.000009 0.000001 -0.000000 -1.233009 0.595989 8.695224 0.120537 -1.119648 16.859801 -0.000000 -0.000001 0.000002 0.000004 -0.000003 0.000001 -1.142362 -1.774139 0.545304 -0.357890 1.142261 22.115997 0.000001 -0.000004 0.000003 0.000002 -0.000001 0.000002 1.909914 -0.146229 -2.803243 -0.619900 3.110099 28.344745 -0.000000 0.000003 -0.000000 0.000003 0.000000 -0.000001 4.769423 -2.279031 -7.778106 -1.320423 7.677264 37.620200 -0.000005 0.000008 0.000002 -0.000000 0.000002 0.000002 -75.399688 -35.739965 31.141459 108.904737 -11.735904 -4.637946 -19.893204 6.363711 -21.838215 -0.956514 1.253407 0.711772 0.000000 0.000000 0.000000 -44.602641 20.135461 -41.850567 97.411400 18.535813 7.206406 -29.574053 -12.374969 29.856516 -9.259015 -3.053272 -0.173058 -0.000000 -0.000001 0.000001 
